<!DOCTYPE svg PUBLIC "-//W3C//DTD SVG 1.1//EN" "http://www.w3.org/Graphics/SVG/1.1/DTD/svg11.dtd">
<!-- Uploaded to: SVG Repo, www.svgrepo.com, Transformed by: SVG Repo Mixer Tools -->
<svg height="800px" width="800px" version="1.1" id="Layer_1" xmlns="http://www.w3.org/2000/svg" xmlns:xlink="http://www.w3.org/1999/xlink" viewBox="0 0 512.001 512.001" xml:space="preserve" fill="#000000">
<g id="SVGRepo_bgCarrier" stroke-width="0"/>
<g id="SVGRepo_tracerCarrier" stroke-linecap="round" stroke-linejoin="round"/>
<g id="SVGRepo_iconCarrier"> <path style="fill:#1957a9;" d="M470.656,512.001h-304.22c-10.345,0-18.732-8.387-18.732-18.732v-125.09 c0-10.345,8.387-18.732,18.732-18.732h160.397V189.049c0-10.345,8.387-18.732,18.732-18.732h125.09 c10.345,0,18.732,8.387,18.732,18.732v304.22C489.388,503.614,481.001,512.001,470.656,512.001z"/> <path style="fill:#7aa7ff;" d="M345.566,386.91H41.346c-10.345,0-18.732-8.387-18.732-18.732V63.958 c0-10.345,8.387-18.732,18.732-18.732h304.219c10.345,0,18.732,8.387,18.732,18.732v304.22 C364.298,378.523,355.911,386.91,345.566,386.91z"/> <path style="fill:#303031;" d="M180.206,129.826c-7.315-7.315-7.315-19.175,0-26.49l97.849-97.849c7.315-7.315,19.176-7.315,26.49,0 c7.315,7.315,7.315,19.175,0,26.49l-97.849,97.849C199.381,137.142,187.52,137.143,180.206,129.826z"/> </g>
</svg>